<svg xmlns="http://www.w3.org/2000/svg" xmlns:xlink="http://www.w3.org/1999/xlink" width="108.412" height="85.509" viewBox="0 0 108.412 85.509"><defs><style>.a{fill:#680dd1;}.b,.f{fill-rule:evenodd;}.b{fill:url(#a);}.c{fill:url(#b);}.d{fill:url(#c);}.e{fill:url(#d);}.f{fill:#fff;}</style><linearGradient id="a" x1="0.07" y1="0.863" x2="0.919" y2="0.358" gradientUnits="objectBoundingBox"><stop offset="0" stop-color="#2dc8d3"/><stop offset="0.51" stop-color="#51d898"/><stop offset="1" stop-color="#d3f792"/></linearGradient><linearGradient id="b" x1="0.868" y1="0.292" x2="0.042" y2="0.76" gradientUnits="objectBoundingBox"><stop offset="0" stop-color="#fb5974"/><stop offset="0.471" stop-color="#be35e1"/><stop offset="1" stop-color="#6d2deb"/></linearGradient><linearGradient id="c" x1="0.988" y1="0.158" x2="0.494" y2="0.884" gradientUnits="objectBoundingBox"><stop offset="0" stop-color="#ffb050"/><stop offset="1" stop-color="#fb6179"/></linearGradient><linearGradient id="d" x1="0.011" y1="0.448" x2="0.84" y2="0.857" gradientUnits="objectBoundingBox"><stop offset="0" stop-color="#08ccc8"/><stop offset="1" stop-color="#3a78f2"/></linearGradient></defs><g transform="translate(0 0)"><path class="a" d="M19.715,79.82c-.51,0-1.087.176-1.087.782,0,.755,1.027.91,1.6,1.05,1.1.265,2,.69,2,1.957,0,1.3-1.141,1.9-2.313,1.9a3.933,3.933,0,0,1-2.692-1.045l.685-.823a3.082,3.082,0,0,0,2.035.851c.522,0,1.147-.208,1.147-.828,0-.665-.778-.838-1.3-.962-1.176-.283-2.313-.586-2.313-2.021,0-1.295,1.1-1.869,2.267-1.869a3.665,3.665,0,0,1,2.284.777l-.582.823a2.837,2.837,0,0,0-1.744-.592Zm17.858-.851a2.294,2.294,0,1,1,.018,4.57H37.41v-.99h.214a1.3,1.3,0,1,0-.069-2.59H36.083v5.477H34.992V78.969h2.581Zm15.068,6.467H51.475l2.85-6.467H55.49l2.85,6.467H57.174l-2.266-5.144Zm20.952-.99a2.426,2.426,0,0,0,1.822-.8l.7.722a3.369,3.369,0,0,1-5.892-2.193A3.315,3.315,0,0,1,73.7,78.812a3.253,3.253,0,0,1,2.512,1.11l-.694.759a2.389,2.389,0,0,0-1.841-.8,2.213,2.213,0,0,0-2.312,2.253,2.248,2.248,0,0,0,2.229,2.308Zm19.916-5.477V80H88.856V78.969Zm-1.338,2.738v.972H89.947v1.73h3.562v1.027H88.856V81.707h3.315Z"/><circle class="a" cx="28.406" cy="28.406" r="28.406" transform="translate(25.704 6.699)"/><path class="b" d="M23.669,20.3C6.676,50.59,30.528,51.841,49.383,46.193,27.1,48.421,27.7,21.95,44.172,13.376A22.944,22.944,0,0,1,70.1,16.4L80.1,19.276l1.781-5.736A33.768,33.768,0,0,0,39.239,3.823c-7.477,3.89-11.746,9.182-15.57,16.481Z"/><path class="c" d="M64.24,56.44a22.943,22.943,0,0,1-25.925-3.02l-10.042-2.9-1.744,5.755a33.767,33.767,0,0,0,42.645,9.717c7.476-3.89,11.745-9.181,15.57-16.481,19.725-27.226-3.433-34.1-25.714-25.888C81.31,21.4,80.708,47.867,64.24,56.44Z"/><path class="d" d="M84.744,49.512A93.674,93.674,0,0,0,99.4,37.628c15.58-15.875,10.572-27.174-11.965-24.859-13.221,1.355-26.5,6.273-38.321,12.114a.56.56,0,0,0,.411,1.037c6.69-2.421,17.079-3.694,23.857-2.5,13.526,2.376,16.936,15,11.365,26.1Z"/><path class="e" d="M23.669,20.3A93.788,93.788,0,0,0,9.015,32.188C-6.563,48.063-1.556,59.361,20.981,57.047,34.2,55.69,47.478,50.774,59.3,44.934a.561.561,0,0,0-.411-1.038c-6.69,2.422-17.079,3.695-23.857,2.5C21.508,44.025,18.1,31.4,23.669,20.3Z"/><path class="f" d="M43.637,29.645H41.621a.791.791,0,0,0-.787.791v9.339a.79.79,0,0,0,.787.79h2.016V37.3a.791.791,0,0,1,.787-.791H46.67V33.7H44.424a.79.79,0,0,1-.787-.79V29.645Zm6.992,0H48.613v10.92h2.016a.79.79,0,0,0,.787-.79V30.436A.791.791,0,0,0,50.629,29.645Zm3.35,4.052H53.36v2.816h.6a.772.772,0,0,1,.718.468L56.064,40.1a.772.772,0,0,0,.719.468h2.484l-2.429-5.458,2.482-5.462H56.831a.773.773,0,0,0-.716.463L54.7,33.235a.772.772,0,0,1-.716.462Zm11.2-3.715,4.724,10.583h-2.48a.773.773,0,0,1-.719-.467l-3.275-7.342-2.577,5.673L59.37,35.1l2.479-5.46h2.816a.556.556,0,0,1,.517.337Z"/></g></svg>